<svg viewBox="0 0 512 512" xmlns="http://www.w3.org/2000/svg"><path d="m180.285 128.232h-22.66-22.66l-14.84 17.27 36.978 36.978c.145.144.334.217.523.217.19 0 .379-.072.523-.217l36.978-36.978z" fill="#b3d8f5"/><path d="m377.036 128.232h-22.66-22.66l-14.84 17.27 36.978 36.978c.144.144.334.217.523.217s.379-.072.523-.217l36.978-36.978z" fill="#b3d8f5"/><path d="m278.766 244.532c-6.648-9.085-14.286-17.399-22.766-24.771-26.338-22.896-60.736-36.759-98.375-36.759-82.855 0-150.021 67.166-150.021 150.021s67.166 150.022 150.021 150.022c37.639 0 72.038-13.863 98.375-36.759-8.481-7.373-16.119-15.685-22.766-24.771-20.341 17.396-46.746 27.907-75.609 27.907-64.285 0-116.397-52.113-116.397-116.397s52.112-116.398 116.397-116.398c28.863 0 55.268 10.511 75.609 27.907 8.832 7.553 16.519 16.403 22.766 26.259 11.411 18 18.022 39.343 18.022 62.233s-6.611 44.233-18.022 62.233c6.247 9.856 13.935 18.706 22.766 26.259 18.153-24.809 28.879-55.395 28.879-88.492 0-33.099-10.726-63.685-28.879-88.494z" fill="#fed322"/><path d="m354.375 183.003c-37.639 0-72.037 13.863-98.375 36.759 8.481 7.373 16.119 15.685 22.766 24.771 20.341-17.396 46.745-27.907 75.609-27.907 64.285 0 116.397 52.113 116.397 116.397s-52.112 116.397-116.397 116.397c-28.864 0-55.268-10.511-75.609-27.907-8.832-7.553-16.519-16.403-22.766-26.259-11.411-18-18.022-39.343-18.022-62.233s6.611-44.233 18.022-62.233c-6.247-9.856-13.935-18.706-22.766-26.259-18.153 24.809-28.879 55.395-28.879 88.492s10.726 63.683 28.879 88.492c6.648 9.085 14.286 17.398 22.766 24.771 26.338 22.896 60.736 36.759 98.375 36.759 82.854 0 150.021-67.166 150.021-150.021s-67.166-150.019-150.021-150.019z" fill="#fed322"/><g fill="#ddb201"><path d="m278.766 244.532c-3.683-7.363-22.766-24.771-22.766-24.771s11.979-9.299 13.854-10.489c0 0 19.263 16.979 21.97 25.777z"/><path d="m246.009 290.462 9.991-19.67c-6.536-11.768-22.766-26.259-22.766-26.259s-9.645 14.34-12.603 20.489c-.002-.001 16.986 12.412 25.378 25.44z"/><path d="m233.23 421.566c3.683 7.363 22.766 24.771 22.766 24.771s-11.979 9.299-13.854 10.489c0 0-19.263-16.979-21.97-25.777z"/><path d="m265.988 375.637-9.991 19.67c6.536 11.768 22.766 26.259 22.766 26.259s9.645-14.34 12.603-20.489c.001 0-16.986-12.413-25.378-25.44z"/></g><path d="m377.036 128.232h-22.66v54.465c.19 0 .379-.072.523-.217l36.978-36.978z" fill="#78baec"/><path d="m180.285 128.232h-22.66v54.465c.19 0 .379-.072.523-.217l36.978-36.978z" fill="#78baec"/><path d="m371.769 176.364 30.47-30.47-21.71-25.265h-52.305l-21.71 25.265 30.47 30.47c-29.557 3.279-57.658 14.863-80.982 33.507-23.324-18.644-51.425-30.228-80.982-33.507l30.47-30.47-21.71-25.265h-52.305l-21.71 25.265 30.47 30.47c-78.764 8.685-140.235 75.624-140.235 156.66 0 86.914 70.71 157.625 157.625 157.625 35.834 0 70.513-12.2 98.375-34.472 27.862 22.272 62.542 34.472 98.375 34.472 86.915 0 157.625-70.711 157.625-157.625 0-81.036-61.471-147.975-140.231-156.66zm-36.562-40.528h38.337l7.969 9.275-27.138 27.138-27.138-27.138zm-196.751 0h38.337l7.969 9.275-27.138 27.138-27.138-27.138zm19.169 339.605c-78.529 0-142.417-63.888-142.417-142.417s63.888-142.417 142.417-142.417c34.337 0 67.503 12.392 93.387 34.894 8.035 6.984 15.308 14.898 21.618 23.522 17.933 24.508 27.412 53.555 27.412 84.001 0 27.573-7.775 54-22.562 76.946-.192-.192-.376-.39-.566-.583-.834-.847-1.659-1.702-2.465-2.574-.357-.386-.705-.781-1.055-1.172-.661-.736-1.315-1.479-1.955-2.233-.368-.433-.731-.869-1.092-1.308-.618-.751-1.225-1.513-1.823-2.28-.337-.432-.675-.863-1.005-1.3-.655-.867-1.293-1.748-1.921-2.636-.195-.275-.396-.545-.589-.823 10.887-18.81 16.619-40.153 16.619-62.037 0-21.925-5.759-43.301-16.685-62.137l.061-.096-2.58-4.072c-4.983-7.859-10.817-15.117-17.407-21.662-2.197-2.182-4.478-4.285-6.84-6.304l-6.234-5.332-.161.22c-21.339-15.929-47.37-24.62-74.156-24.62-68.375 0-124.002 55.628-124.002 124.002s55.627 124.001 124.002 124.001c26.853 0 52.947-8.733 74.315-24.737.095.118.196.231.291.348.539.661 1.092 1.311 1.641 1.964.423.501.84 1.007 1.269 1.503.586.677 1.185 1.342 1.782 2.01.409.457.812.92 1.226 1.372.656.716 1.326 1.418 1.995 2.122.37.389.734.787 1.108 1.172.815.84 1.646 1.666 2.48 2.488.228.225.449.456.677.68-24.804 19.076-55.303 29.495-86.785 29.495zm131.452-229.401c18.767-14.095 41.689-21.81 65.298-21.81 59.989 0 108.794 48.805 108.794 108.794s-48.805 108.792-108.794 108.792c-23.608 0-46.531-7.715-65.298-21.81 17.142-25.819 26.172-55.735 26.172-86.984 0-31.247-9.029-61.164-26.172-86.982zm-43.495 86.984c0-16.18 3.584-32.012 10.418-46.465 6.834 14.454 10.418 30.285 10.418 46.465s-3.584 32.012-10.418 46.465c-6.834-14.454-10.418-30.285-10.418-46.465zm-22.659-86.984c-17.142 25.819-26.172 55.735-26.172 86.984 0 31.248 9.029 61.165 26.172 86.984-18.767 14.095-41.69 21.81-65.298 21.81-59.989 0-108.794-48.804-108.794-108.793s48.805-108.795 108.794-108.795c23.609 0 46.531 7.715 65.298 21.81zm131.452 229.401c-34.337 0-67.503-12.392-93.387-34.894-8.034-6.983-15.308-14.898-21.618-23.522-17.933-24.508-27.412-53.555-27.412-84.001 0-27.573 7.775-54.001 22.562-76.946.194.194.38.394.572.589.833.845 1.656 1.698 2.46 2.569.355.384.701.778 1.05 1.167.664.739 1.32 1.485 1.964 2.243.364.429.724.862 1.082 1.296.623.756 1.233 1.522 1.835 2.294.334.428.669.855.997 1.289.655.867 1.292 1.748 1.921 2.635.196.277.398.548.591.827-10.887 18.81-16.619 40.153-16.619 62.038 0 21.925 5.759 43.3 16.685 62.136l-.062.096 2.581 4.072c6.643 10.478 14.8 19.888 24.245 27.966l6.234 5.332.161-.221c21.34 15.929 47.369 24.62 74.156 24.62 68.375 0 124.002-55.627 124.002-124.001s-55.626-124.001-124.002-124.001c-26.853 0-52.947 8.733-74.315 24.738-.095-.118-.196-.231-.291-.348-.538-.66-1.089-1.309-1.638-1.96-.424-.503-.844-1.011-1.274-1.508-.58-.67-1.173-1.329-1.764-1.989-.416-.464-.825-.935-1.246-1.394-.642-.701-1.298-1.387-1.951-2.075-.385-.406-.763-.818-1.153-1.221-.781-.805-1.577-1.594-2.373-2.382-.262-.259-.516-.525-.78-.783 24.804-19.075 55.302-29.493 86.786-29.493 78.529 0 142.417 63.888 142.417 142.417s-63.887 142.415-142.416 142.415z"/><path d="m248.396 21.351h15.208v47.344h-15.208z"/><path d="m311.051 36.149h15.207v47.343h-15.207z" transform="matrix(-.9076 -.4198 .4198 -.9076 582.756 247.8874)"/><path d="m169.67 52.224h47.343v15.207h-47.343z" transform="matrix(-.4198 -.9076 .9076 -.4198 220.2073 260.4222)"/></svg>