<svg width="142" height="342" viewBox="0 0 142 342" fill="none" xmlns="http://www.w3.org/2000/svg">
<path d="M61.9795 85.98V88.37H3.15953V86.49L41.2395 47.91C46.5195 42.55 50.0795 38 51.9195 34.27C53.7595 30.54 54.6895 26.67 54.6895 22.64C54.6895 16.36 52.5695 11.41 48.3395 7.81003C44.1095 4.21003 38.0495 2.41002 30.1795 2.41002C24.1495 2.41002 18.9095 3.29002 14.4695 5.05002C10.0295 6.81002 6.21953 9.49003 3.02953 13.09L1.26953 11.33C8.05953 3.79003 17.6895 0.0200195 30.1795 0.0200195C38.4695 0.0200195 45.0495 2.03002 49.9095 6.05002C54.7695 10.07 57.1995 15.56 57.1995 22.51C57.1995 26.95 56.1895 31.18 54.1795 35.2C52.1695 39.22 48.4395 44 42.9895 49.53L7.05953 85.98H61.9795Z" fill="#2D2D34"/>
<path d="M103.169 86.26C95.4194 85.84 89.2694 83.94 84.7194 80.57C79.5194 76.72 76.9294 71.48 76.9294 64.86C76.9294 58.24 79.5494 53.15 84.7794 49.34C90.0194 45.53 97.2894 43.62 106.589 43.62C115.889 43.62 123.309 45.53 128.579 49.34C130.959 51.06 132.769 53.07 134.079 55.34L135.909 53.51C135.099 52.25 134.159 51.06 133.039 49.96C129.059 46.06 123.469 43.53 116.259 42.36C122.549 41.19 127.379 38.82 130.779 35.26C134.169 31.7 135.869 27.28 135.869 22C135.869 15.21 133.209 9.84999 127.889 5.90999C122.569 1.96999 115.469 0 106.589 0C97.7094 0 90.6494 1.96999 85.4094 5.90999C80.1694 9.84999 77.5494 15.21 77.5494 22C77.5494 27.28 79.1994 31.7 82.5094 35.26C85.8194 38.82 90.6194 41.19 96.8994 42.36C89.7794 43.53 84.2494 46.07 80.3094 49.96C76.3694 53.86 74.3994 58.78 74.3994 64.73C74.3994 72.19 77.2294 78.05 82.8794 82.32C87.4394 85.76 93.4694 87.79 100.939 88.46L103.149 86.25L103.169 86.26ZM87.0494 36.02C82.3994 32.55 80.0694 27.83 80.0694 21.88C80.0694 15.93 82.4594 11.2 87.2294 7.67999C92.0094 4.15999 98.4594 2.39999 106.579 2.39999C114.699 2.39999 121.299 4.15999 126.119 7.67999C130.939 11.2 133.349 15.97 133.349 22.01C133.349 28.05 130.979 32.55 126.249 36.02C121.519 39.5 114.959 41.24 106.579 41.24C98.1994 41.24 91.6894 39.5 87.0394 36.02H87.0494Z" fill="#2D2D34"/>
<path d="M16.03 209.5C10.96 205.86 7.02 200.68 4.22 193.98C1.4 187.28 0 179.49 0 170.61C0 161.73 1.4 153.94 4.21 147.23C7.02 140.53 10.95 135.35 16.02 131.71C21.09 128.07 26.93 126.24 33.55 126.24C40.17 126.24 46.01 128.06 51.08 131.71C56.15 135.35 60.09 140.53 62.89 147.23C65.7 153.93 67.1 161.73 67.1 170.61C67.1 179.49 65.7 187.29 62.89 193.99C60.08 200.69 56.14 205.87 51.08 209.51C46.01 213.15 40.17 214.98 33.55 214.98C26.93 214.98 21.09 213.16 16.02 209.51L16.03 209.5ZM49.78 207.43C54.47 203.99 58.12 199.11 60.71 192.79C63.31 186.46 64.61 179.07 64.61 170.61C64.61 162.15 63.31 154.76 60.71 148.43C58.11 142.1 54.47 137.22 49.78 133.79C45.09 130.36 39.68 128.64 33.57 128.64C27.46 128.64 22.05 130.36 17.36 133.79C12.67 137.23 9.02 142.11 6.43 148.43C3.83 154.76 2.53 162.15 2.53 170.61C2.53 179.07 3.83 186.47 6.43 192.79C9.03 199.12 12.67 204 17.36 207.43C22.05 210.87 27.46 212.58 33.57 212.58C39.68 212.58 45.09 210.87 49.78 207.43Z" fill="#2D2D34"/>
<path d="M104.86 213.35L106.78 211.43C104.75 210.89 102.86 210.18 101.11 209.26C96.8802 207.04 93.6902 204.15 91.5602 200.59C89.4202 197.03 88.3602 193.32 88.3602 189.47C88.3602 185.11 89.4902 181.15 91.7502 177.59C94.0102 174.03 97.2002 171.2 101.3 169.11C105.4 167.02 110.1 165.97 115.38 165.97C123.51 165.97 129.94 168.09 134.67 172.32C136.75 174.18 138.34 176.32 139.51 178.72L141.4 176.83C140.15 174.5 138.5 172.4 136.43 170.57C131.19 165.92 124.18 163.59 115.38 163.59C107.84 163.59 101.37 165.6 95.9602 169.62C90.5602 173.64 87.3102 179.13 86.2202 186.08C85.0402 181.47 84.4602 176.24 84.4602 170.37C84.4602 156.8 87.5802 146.45 93.8202 139.33C100.06 132.21 108.59 128.65 119.4 128.65C126.94 128.65 132.76 129.95 136.87 132.55L138.13 130.41C133.61 127.64 127.36 126.26 119.4 126.26C111.86 126.26 105.28 127.94 99.6702 131.29C94.0602 134.64 89.7002 139.63 86.6002 146.25C83.5002 152.87 81.9502 161 81.9502 170.63C81.9502 184.54 84.8602 195.41 90.6802 203.24C94.3402 208.16 99.0602 211.54 104.86 213.37V213.35Z" fill="#2D2D34"/>
<path d="M65.42 338.7V341.09H6.59996V339.21L44.68 300.63C49.96 295.27 53.52 290.72 55.36 286.99C57.2 283.26 58.13 279.39 58.13 275.36C58.13 269.08 56.01 264.13 51.78 260.53C47.55 256.93 41.49 255.13 33.62 255.13C27.59 255.13 22.35 256.01 17.91 257.77C13.47 259.53 9.65996 262.21 6.46996 265.81L4.70996 264.05C11.5 256.51 21.13 252.74 33.62 252.74C41.92 252.74 48.49 254.75 53.35 258.77C58.21 262.79 60.64 268.28 60.64 275.23C60.64 279.67 59.63 283.9 57.62 287.92C55.61 291.94 51.88 296.72 46.43 302.25L10.49 338.7H65.41H65.42Z" fill="#2D2D34"/>
<path d="M101.09 292.96V294.84H105.61C114.99 294.84 122.03 296.79 126.72 300.68C128.74 302.36 130.3 304.33 131.45 306.58L133.26 304.77C132.02 302.64 130.41 300.73 128.42 299.05C123.18 294.65 115.54 292.45 105.48 292.45H104.47L133 255V253.11H79.8398V255.5H129.61L101.08 292.95L101.09 292.96Z" fill="#2D2D34"/>
<path d="M97.5098 340.53L99.5598 338.48C96.2298 337.95 93.0899 337.07 90.1599 335.81C85.0499 333.63 81.2398 330.83 78.7198 327.39L77.0898 329.02C79.7698 332.71 83.8298 335.7 89.2798 338.01C91.8998 339.12 94.6399 339.95 97.5098 340.53Z" fill="#2D2D34"/>
</svg>
