<svg width="530" height="103" viewBox="0 0 530 103" fill="none" xmlns="http://www.w3.org/2000/svg">
<path d="M69.9059 99.1364V101.888H2.17628V99.7236L46.0244 55.2998C52.1041 49.1279 56.2034 43.8887 58.3221 39.5937C60.4408 35.2987 61.5117 30.8425 61.5117 26.2021C61.5117 18.9708 59.0706 13.271 54.1998 9.12575C49.3291 4.98044 42.3512 2.90778 33.2891 2.90778C26.3457 2.90778 20.312 3.92108 15.1994 5.94767C10.0869 7.97426 5.69979 11.0602 2.02659 15.2055L0 13.1789C7.8185 4.49683 18.9072 0.155762 33.2891 0.155762C42.8348 0.155762 50.4115 2.47022 56.0076 7.09914C61.6038 11.7281 64.4019 18.0497 64.4019 26.0524C64.4019 31.1649 63.2389 36.0357 60.9244 40.6646C58.61 45.2935 54.315 50.7976 48.0394 57.1652L6.66703 99.1364H69.9059Z" fill="#2D2D34"/>
<path d="M117.335 99.4586C108.411 98.975 101.329 96.7872 96.0902 92.9067C90.1026 88.4736 87.1203 82.4399 87.1203 74.8171C87.1203 67.1944 90.1371 61.3334 96.1593 56.9462C102.193 52.5591 110.564 50.3598 121.273 50.3598C131.982 50.3598 140.526 52.5591 146.594 56.9462C149.334 58.9268 151.419 61.2412 152.927 63.8551L155.034 61.7479C154.101 60.297 153.019 58.9268 151.729 57.6601C147.147 53.1694 140.71 50.2562 132.408 48.909C139.65 47.5617 145.212 44.8327 149.127 40.7335C153.031 36.6343 154.988 31.5448 154.988 25.465C154.988 17.6465 151.925 11.4746 145.799 6.93776C139.673 2.40096 131.498 0.132568 121.273 0.132568C111.048 0.132568 102.918 2.40096 96.8848 6.93776C90.851 11.4746 87.8342 17.6465 87.8342 25.465C87.8342 31.5448 89.7341 36.6343 93.5455 40.7335C97.3569 44.8327 102.884 47.5617 110.115 48.909C101.917 50.2562 95.549 53.1809 91.0122 57.6601C86.4754 62.1509 84.207 67.8161 84.207 74.6674C84.207 83.2574 87.4657 90.005 93.9715 94.9218C99.2222 98.8829 106.166 101.22 114.767 101.992L117.312 99.4471L117.335 99.4586ZM98.7732 41.6086C93.4188 37.613 90.7359 32.178 90.7359 25.3268C90.7359 18.4755 93.4879 13.0291 98.9804 8.97587C104.484 4.92269 111.911 2.8961 121.261 2.8961C130.611 2.8961 138.211 4.92269 143.761 8.97587C149.311 13.0291 152.086 18.5216 152.086 25.4765C152.086 32.4314 149.357 37.613 143.911 41.6086C138.464 45.6157 130.911 47.6193 121.261 47.6193C111.612 47.6193 104.116 45.6157 98.7616 41.6086H98.7732Z" fill="#2D2D34"/>
<path d="M205.837 96.0042C199.999 91.8128 195.462 85.8482 192.238 78.1333C188.991 70.4185 187.379 61.4485 187.379 51.2234C187.379 40.9983 188.991 32.0284 192.227 24.302C195.462 16.5871 199.988 10.6225 205.826 6.43113C211.663 2.23976 218.388 0.132568 226.011 0.132568C233.634 0.132568 240.358 2.22825 246.196 6.43113C252.034 10.6225 256.571 16.5871 259.795 24.302C263.031 32.0168 264.643 40.9983 264.643 51.2234C264.643 61.4485 263.031 70.43 259.795 78.1449C256.559 85.8597 252.023 91.8243 246.196 96.0157C240.358 100.207 233.634 102.314 226.011 102.314C218.388 102.314 211.663 100.219 205.826 96.0157L205.837 96.0042ZM244.699 93.6207C250.1 89.6596 254.303 84.0404 257.285 76.7631C260.279 69.4742 261.776 60.9649 261.776 51.2234C261.776 41.482 260.279 32.9726 257.285 25.6838C254.291 18.3949 250.1 12.7757 244.699 8.82617C239.299 4.87662 233.069 2.8961 226.034 2.8961C218.998 2.8961 212.769 4.87662 207.368 8.82617C201.968 12.7872 197.765 18.4064 194.783 25.6838C191.789 32.9726 190.292 41.482 190.292 51.2234C190.292 60.9649 191.789 69.4858 194.783 76.7631C197.777 84.0519 201.968 89.6711 207.368 93.6207C212.769 97.5817 218.998 99.5507 226.034 99.5507C233.069 99.5507 239.299 97.5817 244.699 93.6207Z" fill="#2D2D34"/>
<path d="M308.122 100.438L310.333 98.2267C307.996 97.6049 305.819 96.7874 303.804 95.728C298.934 93.1717 295.26 89.844 292.808 85.7447C290.344 81.6455 289.123 77.3735 289.123 72.9404C289.123 67.9199 290.424 63.3601 293.027 59.2609C295.629 55.1616 299.302 51.903 304.023 49.4964C308.744 47.0898 314.156 45.8807 320.236 45.8807C329.597 45.8807 337.001 48.3219 342.448 53.1926C344.843 55.3343 346.674 57.7985 348.021 60.562L350.197 58.3858C348.758 55.7028 346.858 53.2847 344.474 51.1775C338.441 45.8232 330.369 43.1402 320.236 43.1402C311.554 43.1402 304.104 45.4547 297.874 50.0836C291.656 54.7125 287.914 61.0341 286.659 69.0369C285.3 63.7286 284.632 57.7064 284.632 50.9472C284.632 35.3217 288.225 23.404 295.41 15.2055C302.595 7.00703 312.417 2.9078 324.865 2.9078C333.547 2.9078 340.249 4.40471 344.981 7.39854L346.432 4.93437C341.227 1.74479 334.031 0.155762 324.865 0.155762C316.183 0.155762 308.606 2.09023 302.146 5.94767C295.687 9.8051 290.666 15.5509 287.097 23.1737C283.527 30.7964 281.742 40.1579 281.742 51.2466C281.742 67.2636 285.093 79.7801 291.795 88.7962C296.009 94.4614 301.444 98.3534 308.122 100.461V100.438Z" fill="#2D2D34"/>
<path d="M451.884 99.1132V101.865H384.155V99.7004L428.003 55.2766C434.083 49.1047 438.182 43.8655 440.301 39.5705C442.419 35.2755 443.49 30.8193 443.49 26.1789C443.49 18.9476 441.049 13.2478 436.178 9.10252C431.308 4.95721 424.33 2.88457 415.268 2.88457C408.324 2.88457 402.29 3.89788 397.178 5.92448C392.065 7.95107 387.678 11.037 384.005 15.1823L381.979 13.1557C389.797 4.47362 400.886 0.132568 415.268 0.132568C424.825 0.132568 432.39 2.44703 437.986 7.07595C443.582 11.7049 446.38 18.0264 446.38 26.0292C446.38 31.1417 445.217 36.0125 442.903 40.6414C440.588 45.2703 436.293 50.7743 430.018 57.142L388.634 99.1132H451.873H451.884Z" fill="#2D2D34"/>
<path d="M492.958 46.4448V48.6095H498.163C508.964 48.6095 517.07 50.8549 522.47 55.3342C524.796 57.2686 526.593 59.537 527.917 62.1279L530.001 60.0437C528.573 57.5911 526.719 55.3917 524.428 53.4573C518.394 48.3908 509.597 45.8575 498.013 45.8575H496.85L529.702 2.73486V0.558594H468.489V3.3106H525.798L492.947 46.4333L492.958 46.4448Z" fill="#2D2D34"/>
<path d="M488.835 101.22L491.196 98.8599C487.361 98.2496 483.746 97.2363 480.372 95.7855C474.488 93.2753 470.101 90.0512 467.199 86.0901L465.322 87.967C468.408 92.2159 473.083 95.6588 479.359 98.3187C482.376 99.5969 485.531 100.553 488.835 101.22Z" fill="#2D2D34"/>
</svg>
